<svg class="svg-icon" style="width: 1em; height: 1em;vertical-align: middle;fill: currentColor;overflow: hidden;" viewBox="0 0 1024 1024" version="1.1" xmlns="http://www.w3.org/2000/svg"><path d="M512.001023 64.386426c-247.111051 0-447.431425 200.319351-447.431425 447.427332 0 247.113097 200.319351 447.429379 447.431425 447.429379 247.110027 0 447.429379-200.316282 447.429379-447.429379C959.430402 264.705777 759.110027 64.386426 512.001023 64.386426L512.001023 64.386426zM512.001023 903.31843c-219.652675 0-391.500579-171.84995-391.500579-391.504672 0-219.652675 171.847903-391.498532 391.500579-391.498532 219.650629 0 391.500579 171.84688 391.500579 391.498532C903.501602 731.46848 731.651652 903.31843 512.001023 903.31843L512.001023 903.31843zM412.568407 213.528188l198.862163 0-49.718355 99.429547-99.42443 0L412.568407 213.528188zM417.113933 582.914096l189.857069 138.078799 29.312606-35.175127-6.517437-22.816658L434.751638 521.17087 417.113933 582.914096zM584.941266 506.108826l-48.082088-168.297031-49.718355 0-22.984481 80.46052L584.941266 506.108826zM411.231969 603.493807l-23.521716 82.322937 124.290771 149.141762 82.075297-98.498338L411.231969 603.493807zM458.279495 438.847933l-17.643845 61.743226 180.163289 131.031289-26.894534-94.13496L458.279495 438.847933zM458.279495 438.847933"  /></svg>